PathFileType	4	(X/Y/Z)	Run_300 01
DataRate	CameraRate	NumFrames	NumMarkers	Units	OrigDataRate	OrigDataStartFrame	OrigNumFrames
120	120	4	41	mm	120	102	125
Frame#	Time	LASI			RASI			LPSI			RPSI			RTH1			RTH3			LTH1			LTH2			LTH3			RTB1			RTB2			RTB3			LTB1			LTB2			LTB3			RCAL			RTOE			RMT5			LCAL			LTOE			LMT5			LACR			RACR			CLAV			C7			RUA1			RUA2			RUA3			RLEL			RMEL			LUA1			LUA2			LUA3			LLEL			LMEL			RFAsuperior			RFAradius			RFAulna			LFAsuperior			LFAradius			LFAulna			
		X1	Y1	Z1	X2	Y2	Z2	X3	Y3	Z3	X4	Y4	Z4	X5	Y5	Z5	X6	Y6	Z6	X7	Y7	Z7	X8	Y8	Z8	X9	Y9	Z9	X10	Y10	Z10	X11	Y11	Z11	X12	Y12	Z12	X13	Y13	Z13	X14	Y14	Z14	X15	Y15	Z15	X16	Y16	Z16	X17	Y17	Z17	X18	Y18	Z18	X19	Y19	Z19	X20	Y20	Z20	X21	Y21	Z21	X22	Y22	Z22	X23	Y23	Z23	X24	Y24	Z24	X25	Y25	Z25	X26	Y26	Z26	X27	Y27	Z27	X28	Y28	Z28	X29	Y29	Z29	X30	Y30	Z30	X31	Y31	Z31	X32	Y32	Z32	X33	Y33	Z33	X34	Y34	Z34	X35	Y35	Z35	X36	Y36	Z36	X37	Y37	Z37	X38	Y38	Z38	X39	Y39	Z39	X40	Y40	Z40	X41	Y41	Z41	

102	1.341667	902.150537	955.519368	-396.566554	879.0781490000001	964.446641	-165.244739	737.816343	994.5500929999999	-346.34661	718.9680090000001	998.831891	-249.630441	844.8150429999999	801.7087749999999	-108.724079	922.501998	560.871636	-173.21355	866.315836	769.186831	-460.892326	923.672173	664.192399	-452.011735	862.7344440000001	552.244716	-442.625578	968.669127	344.321068	-258.684332	921.134498	293.09202	-193.136276	914.087079	233.350588	-267.086636	794.118609	409.968276	-349.851012	701.876109	442.199195	-443.485926	611.6255619999999	401.276666	-377.555047	756.720354	105.19483	-270.720032	960.130513	70.861294	-302.104243	942.718876	61.309715	-206.310481	477.435523	501.023394	-360.406421	452.108697	294.759863	-360.98777	435.285219	319.451353	-448.172139	904.0217270000001	1423.379234	-456.653334	859.421435	1395.634076	-62.101769	942.127881	1402.509987	-231.030053	829.15787	1473.116742	-276.196406	776.118316	1272.748073	-25.955074	705.3475120000001	1284.560897	-48.162824	717.134175	1206.618634	-2.622458	670.11581	1152.986963	13.580157	644.376287	1138.275273	-62.760042	831.736855	1303.501432	-520.057159	756.702648	1271.685172	-520.700472	813.331799	1215.387514	-535.747819	755.315851	1155.248698	-564.719748	703.805753	1161.012409	-494.501582	754.314619	1057.26333	4.029274	824.217636	976.167296	-56.277916	783.410961	938.79842	-13.00947	856.5956	1086.541453	-518.005298	926.299139	1073.343917	-421.837915	928.346436	1020.979611	-461.991883	
103	1.35	899.627518	954.137401	-395.463449	876.4469790000001	962.882126	-164.132211	735.64016	993.823492	-345.408867	714.969705	998.351229	-248.446538	839.120668	799.128577	-108.547278	911.372201	555.942623	-174.141718	867.129041	768.158203	-460.567024	933.3373340000001	666.375582	-452.465036	877.5319469999999	552.0828749999999	-443.265812	953.145702	337.699108	-257.419465	902.265434	287.858475	-193.353075	893.802587	229.210355	-267.177523	813.356188	410.229932	-348.677648	721.337818	439.852051	-444.404792	631.781729	397.641461	-378.01867	731.762732	105.662108	-270.767109	934.9440489999999	70.03961	-302.315425	917.376287	60.98651	-206.272603	493.014721	495.341628	-362.672948	476.54401	288.311902	-361.407562	460.322004	311.368976	-449.148828	901.046974	1420.631315	-457.214506	863.259711	1392.674113	-62.254257	942.482697	1399.96741	-232.292576	828.976727	1470.664763	-275.793973	784.095025	1267.948784	-24.627939	712.409205	1277.172158	-45.533472	728.304341	1199.377603	-0.118837	683.8410260000001	1143.856562	17.776999	655.356815	1128.549225	-57.42615	825.468419	1302.224135	-519.473153	749.848416	1271.596757	-516.54287	805.0599089999999	1215.033783	-535.631491	745.988264	1155.364444	-563.448415	696.666331	1160.785024	-492.037192	770.278637	1050.398165	4.995189	839.823751	971.612244	-57.50343	801.694691	933.0925109999999	-12.452357	846.661027	1083.080295	-519.894812	917.035125	1065.752627	-426.237498	916.979224	1013.83848	-466.912559	
104	1.358333	897.134181	954.004595	-394.530666	874.372303	961.947884	-163.386452	733.450255	993.701148	-344.176482	711.904346	998.502367	-247.020879	832.431199	798.2374610000001	-107.724047	899.975022	552.030559	-174.472652	867.732871	768.227909	-460.169714	942.888042	670.174729	-452.526767	892.3617839999999	553.750707	-443.391593	936.062003	332.008105	-256.949111	883.425879	282.980167	-194.082317	872.5504079999999	225.859491	-267.31927	832.380659	411.08748	-347.98559	740.579009	437.696583	-444.952633	651.762998	394.163119	-377.992047	706.743888	106.279122	-270.802055	909.670785	69.51888599999999	-302.725506	892.007234	60.864063	-206.22259	507.923312	487.823199	-364.583963	502.456735	280.306388	-361.822314	485.975894	301.788148	-449.86972	897.943217	1419.300162	-457.701413	866.9974570000001	1391.744871	-62.579863	942.6389830000001	1398.644823	-233.828261	828.598734	1469.49804	-275.471897	791.628373	1265.435233	-23.285856	719.33039	1271.716249	-43.765041	739.173267	1194.568117	1.872189	697.308823	1137.399545	21.070129	666.29376	1121.355081	-53.033431	819.120726	1302.715545	-519.067764	743.054246	1273.62975	-512.711698	796.618712	1216.528372	-535.4764269999999	736.432638	1157.798228	-562.508248	689.436061	1162.802508	-489.878477	786.230857	1046.58493	4.970912	855.908906	970.150307	-59.505558	820.548334	930.244226	-13.082774	836.248816	1081.989495	-521.576297	907.2958620000001	1061.148821	-429.926688	905.148584	1009.689272	-471.113533	
105	1.366667	894.7323709999999	954.923063	-394.142757	872.963566	961.577784	-163.014382	731.418414	994.215643	-342.945605	710.034371	999.187763	-245.712914	825.965807	798.413842	-106.832279	888.5643659999999	549.3504390000001	-173.98778	868.632133	769.637302	-459.856376	951.84064	675.747273	-452.103729	906.80907	557.612633	-443.184178	917.495752	327.665274	-257.270696	864.420483	279.094259	-195.069024	850.573848	223.486564	-267.266347	851.02409	412.508106	-347.844211	759.434124	435.935645	-444.957677	671.388401	390.869206	-377.419618	681.6777939999999	107.032513	-270.752523	884.340314	69.32619200000001	-303.150121	866.610131	60.803183	-206.151593	522.330419	478.436658	-366.140738	529.549953	270.995253	-362.151946	512.215313	290.902775	-450.333316	894.690149	1419.448984	-458.106053	870.797006	1392.627325	-62.900566	942.699514	1398.600205	-235.581841	828.260047	1469.883991	-275.079906	798.854872	1264.853609	-22.095257	726.0858909999999	1268.194855	-42.224386	749.487869	1192.090331	3.460125	710.123353	1133.579567	23.527441	676.909757	1116.778232	-49.568367	812.66359	1305.008871	-518.818623	736.2869889999999	1277.514192	-509.717511	788.2128269999999	1219.764788	-535.387552	726.672163	1162.254006	-561.792604	681.945242	1167.010952	-488.006978	801.6860799999999	1045.797072	4.117519	872.155447	972.089526	-62.252225	839.447559	930.507192	-15.131087	825.365572	1083.124433	-523.025115	897.458849	1059.738856	-432.824419	893.246234	1008.736983	-474.526123	
